<svg id="レイヤー_1" data-name="レイヤー 1" xmlns="http://www.w3.org/2000/svg" viewBox="0 0 16.1 15"><defs><style>.cls-1{fill:#ff648c;}</style></defs><path class="cls-1" d="M0,1.46V15H16.1V1.46ZM14.36,13.38H1.74V4.21H14.36Z"/><rect class="cls-1" x="3.2" y="5.56" width="2.44" height="2.44"/><rect class="cls-1" x="6.83" y="5.56" width="2.44" height="2.44"/><rect class="cls-1" x="10.45" y="5.56" width="2.44" height="2.44"/><rect class="cls-1" x="3.2" y="9.32" width="2.44" height="2.44"/><rect class="cls-1" x="6.83" y="9.32" width="2.44" height="2.44"/><rect class="cls-1" x="10.45" y="9.32" width="2.44" height="2.44"/><path class="cls-1" d="M2.51,2.44h0a.76.76,0,0,1-.77-.77V.78A.77.77,0,0,1,2.51,0h0a.78.78,0,0,1,.78.78v.89A.77.77,0,0,1,2.51,2.44Z"/><path class="cls-1" d="M13.59,2.44h0a.77.77,0,0,1-.78-.77V.78A.78.78,0,0,1,13.59,0h0a.77.77,0,0,1,.77.78v.89A.76.76,0,0,1,13.59,2.44Z"/></svg>