<svg id="レイヤー_1" data-name="レイヤー 1" xmlns="http://www.w3.org/2000/svg" viewBox="0 0 18.74 22.28"><defs><style>.cls-1{fill:#4d4d4d;}</style></defs><path class="cls-1" d="M18.13,8.54H13.18a.6.6,0,0,1,0-1.2h4.35V1.21H1.21V7.34H5.55a.6.6,0,1,1,0,1.2H.6a.6.6,0,0,1-.6-.6V.6A.6.6,0,0,1,.6,0H18.13a.6.6,0,0,1,.61.6V7.94A.6.6,0,0,1,18.13,8.54Z"/><path class="cls-1" d="M9.36,19.52a.94.94,0,1,1,.94-.94A.94.94,0,0,1,9.36,19.52Z"/><path class="cls-1" d="M13.18,22.28H12a.6.6,0,0,1-.58-.42,1.49,1.49,0,0,1-.07-.47,1.54,1.54,0,0,1,1.54-1.54,1.51,1.51,0,0,1,.48.07.61.61,0,0,1,.42.58v1.17A.61.61,0,0,1,13.18,22.28Z"/><path class="cls-1" d="M6.74,22.28H5.55a.6.6,0,0,1-.6-.61V20.5a.62.62,0,0,1,.41-.58,1.61,1.61,0,0,1,.49-.07,1.54,1.54,0,0,1,1.54,1.54,1.84,1.84,0,0,1-.07.47A.61.61,0,0,1,6.74,22.28Z"/><path class="cls-1" d="M12.89,6.56A1.54,1.54,0,0,1,11.35,5a1.49,1.49,0,0,1,.07-.47A.6.6,0,0,1,12,4.13h1.18a.6.6,0,0,1,.61.6V5.91a.6.6,0,0,1-.41.57A1.62,1.62,0,0,1,12.89,6.56Z"/><path class="cls-1" d="M5.85,6.56a1.62,1.62,0,0,1-.49-.08A.59.59,0,0,1,5,5.91V4.73a.6.6,0,0,1,.6-.6H6.74a.61.61,0,0,1,.58.42A1.84,1.84,0,0,1,7.39,5,1.54,1.54,0,0,1,5.85,6.56Z"/><path class="cls-1" d="M9.36,8.65a.94.94,0,1,1,.94-.94A.94.94,0,0,1,9.36,8.65Z"/><path class="cls-1" d="M13.18,22.28H5.55a.6.6,0,0,1-.6-.61V4.73a.6.6,0,0,1,.6-.6h7.63a.6.6,0,0,1,.61.6V21.67A.61.61,0,0,1,13.18,22.28Zm-7-1.21h6.42V5.34H6.16Z"/><path class="cls-1" d="M9.29,15.66a2.34,2.34,0,1,1,2.33-2.34A2.34,2.34,0,0,1,9.29,15.66Zm0-3.46a1.13,1.13,0,1,0,1.12,1.12A1.12,1.12,0,0,0,9.29,12.2Z"/><path class="cls-1" d="M15.43,5.34H3.3a.61.61,0,0,1,0-1.21H15.43a.61.61,0,1,1,0,1.21Z"/></svg>