<svg id="レイヤー_1" data-name="レイヤー 1" xmlns="http://www.w3.org/2000/svg" viewBox="0 0 23.37 25.69"><defs><style>.cls-1{fill:#4d4d4d;}</style></defs><path class="cls-1" d="M18.42,22.8H5a.69.69,0,0,1-.69-.69V3.58A.69.69,0,0,1,5,2.89H18.42a.69.69,0,0,1,.69.69V22.11A.69.69,0,0,1,18.42,22.8ZM5.64,21.42h12.1V4.27H5.64Z"/><path class="cls-1" d="M7.6,7.52a.75.75,0,0,1-.26,0,.71.71,0,0,1-.22-.15.67.67,0,0,1,0-1,.69.69,0,0,1,.75-.15.45.45,0,0,1,.21.15.6.6,0,0,1,.16.22.75.75,0,0,1,0,.26.65.65,0,0,1-.21.49.66.66,0,0,1-.21.15A.86.86,0,0,1,7.6,7.52Z"/><path class="cls-1" d="M15.77,7.52H10a.69.69,0,1,1,0-1.38h5.8a.69.69,0,1,1,0,1.38Z"/><path class="cls-1" d="M7.6,11.53a.75.75,0,0,1-.26,0,.6.6,0,0,1-.22-.16A.78.78,0,0,1,7,11.11a.86.86,0,0,1,0-.27.67.67,0,0,1,.21-.49l.1-.08.12-.07.13,0a.72.72,0,0,1,.62.19.7.7,0,0,1,.2.49.86.86,0,0,1,0,.27,1,1,0,0,1-.15.21A.69.69,0,0,1,7.6,11.53Z"/><path class="cls-1" d="M15.77,11.53H10a.69.69,0,1,1,0-1.38h5.8a.69.69,0,0,1,0,1.38Z"/><path class="cls-1" d="M7.6,15.54a.68.68,0,0,1-.48-.21A.69.69,0,0,1,7,15.11a.76.76,0,0,1,0-.27.66.66,0,0,1,.21-.48.71.71,0,0,1,.22-.15l.13,0a.69.69,0,0,1,.4,0,.66.66,0,0,1,.21.15.69.69,0,0,1,.16.22.85.85,0,0,1,0,.26.76.76,0,0,1,0,.27.69.69,0,0,1-.16.22.45.45,0,0,1-.21.15A.88.88,0,0,1,7.6,15.54Z"/><path class="cls-1" d="M15.77,15.54H10a.69.69,0,1,1,0-1.38h5.8a.69.69,0,0,1,0,1.38Z"/><path class="cls-1" d="M7.6,19.55a.76.76,0,0,1-.26-.06.48.48,0,0,1-.22-.15A.69.69,0,0,1,7,19.12a.81.81,0,0,1,0-.27.68.68,0,0,1,.21-.49.7.7,0,0,1,.62-.18l.13,0a.83.83,0,0,1,.22.14.71.71,0,0,1,.2.49.81.81,0,0,1,0,.27.86.86,0,0,1-.15.22.54.54,0,0,1-.22.15A.88.88,0,0,1,7.6,19.55Z"/><path class="cls-1" d="M15.77,19.54H10a.69.69,0,1,1,0-1.37h5.8a.69.69,0,1,1,0,1.37Z"/><path class="cls-1" d="M13.53,25.69a.72.72,0,0,1-.32-.08L7.63,22.72a.69.69,0,0,1-.29-.93.68.68,0,0,1,.93-.29l5,2.57,1.18-2.28a.68.68,0,0,1,.93-.29.69.69,0,0,1,.3.93l-1.5,2.89a.68.68,0,0,1-.41.33A.45.45,0,0,1,13.53,25.69Z"/><path class="cls-1" d="M18.42,16.25a.71.71,0,0,1-.31-.08.7.7,0,0,1-.3-.93l3.94-7.6L18.11,5.75a.7.7,0,0,1-.3-.93.68.68,0,0,1,.93-.29L23,6.74a.67.67,0,0,1,.29.92L19,15.87A.68.68,0,0,1,18.42,16.25Z"/><path class="cls-1" d="M15.42,4.27a.72.72,0,0,1-.32-.08l-5-2.57L9,3.9a.69.69,0,0,1-1.23-.64L9.23.37a.68.68,0,0,1,.93-.29L15.74,3a.69.69,0,0,1-.32,1.3Z"/><path class="cls-1" d="M5,21.24a.72.72,0,0,1-.32-.08L.37,19a.71.71,0,0,1-.34-.4A.7.7,0,0,1,.08,18L4.34,9.81a.67.67,0,0,1,.92-.29.69.69,0,0,1,.3.93l-3.94,7.6,3.64,1.89A.69.69,0,0,1,5,21.24Z"/></svg>