<?xml version="1.0" encoding="utf-8"?>
<!-- Generator: Adobe Illustrator 24.2.3, SVG Export Plug-In . SVG Version: 6.00 Build 0)  -->
<svg version="1.1" id="レイヤー_1" xmlns="http://www.w3.org/2000/svg" xmlns:xlink="http://www.w3.org/1999/xlink" x="0px"
	 y="0px" viewBox="0 0 18.2 17.8" style="enable-background:new 0 0 18.2 17.8;" xml:space="preserve">
<style type="text/css">
	.st0{fill:#FF648C;}
</style>
<g>
	<path class="st0" d="M9.1,4.4c-2.5,0-4.6,2-4.6,4.5c0,2.5,2.1,4.5,4.6,4.5c2.5,0,4.6-2,4.6-4.5C13.7,6.4,11.6,4.4,9.1,4.4z
		 M9.1,11.7c-1.6,0-2.9-1.3-2.9-2.8C6.2,7.3,7.5,6,9.1,6C10.7,6,12,7.3,12,8.9C12,10.5,10.7,11.7,9.1,11.7z"/>
	<path class="st0" d="M15.7,6.8l-0.5-1.1c0,0,1.1-2.4,1-2.5l-1.4-1.4c-0.1-0.1-2.5,1-2.5,1l-1.1-0.4c0,0-1-2.4-1.1-2.4H8
		C7.9,0,7,2.4,7,2.4L5.9,2.9c0,0-2.5-1-2.6-1L1.9,3.3c-0.1,0.1,1,2.5,1,2.5L2.5,6.9c0,0-2.5,1-2.5,1.1v2c0,0.1,2.5,1,2.5,1L3,12
		c0,0-1.1,2.4-1,2.5l1.4,1.4c0.1,0.1,2.5-1,2.5-1L7,15.3c0,0,1,2.4,1.1,2.4h2c0.1,0,1-2.4,1-2.4l1.1-0.4c0,0,2.5,1,2.5,1l1.4-1.4
		c0.1-0.1-1-2.5-1-2.5l0.5-1.1c0,0,2.5-1,2.5-1.1v-2C18.2,7.7,15.7,6.8,15.7,6.8z M9.1,14.2c-3,0-5.4-2.4-5.4-5.3
		c0-2.9,2.4-5.3,5.4-5.3c3,0,5.4,2.4,5.4,5.3C14.5,11.8,12.1,14.2,9.1,14.2z"/>
</g>
</svg>
