<?xml version="1.0" encoding="utf-8"?>
<!-- Generator: Adobe Illustrator 24.2.3, SVG Export Plug-In . SVG Version: 6.00 Build 0)  -->
<svg version="1.1" id="レイヤー_1" xmlns="http://www.w3.org/2000/svg" xmlns:xlink="http://www.w3.org/1999/xlink" x="0px"
	 y="0px" viewBox="0 0 12 12" style="enable-background:new 0 0 12 12;" xml:space="preserve">
<style type="text/css">
	.st0{fill:#FF648C;}
</style>
<g>
	<g>
		<path class="st0" d="M7.3,9c0,0,0.1-0.1,0.2,0c0.6,0.6,2.5,2.5,2.5,2.5c0.5,0.5,1.2,0.6,1.6,0.2l0.1-0.1c0.4-0.4,0.3-1.1-0.2-1.6
			c0,0-1.9-1.9-2.5-2.5C9,7.4,9,7.3,9,7.3C10.2,5.4,9.9,3,8.3,1.4c-1.9-1.9-5-1.9-6.9,0c-1.9,1.9-1.9,5,0,6.9C3,9.9,5.4,10.2,7.3,9z
			 M2.3,7.4C0.9,6,0.9,3.7,2.3,2.3c1.4-1.4,3.7-1.4,5.1,0c1.4,1.4,1.4,3.7,0,5.1C6,8.8,3.7,8.8,2.3,7.4z"/>
		<g>
			<path class="st0" d="M6.6,4.3C6.2,3.2,4.9,2.7,3.8,3.1c-0.3,0.1-0.6,0-0.7-0.3C3,2.6,3.2,2.3,3.4,2.2C5,1.5,6.9,2.3,7.6,3.9
				c0.1,0.3,0,0.6-0.3,0.7c-0.1,0-0.1,0-0.2,0C6.9,4.6,6.7,4.5,6.6,4.3z"/>
		</g>
	</g>
</g>
</svg>
