<svg id="レイヤー_1" data-name="レイヤー 1" xmlns="http://www.w3.org/2000/svg" viewBox="0 0 10.5 15"><defs><style>.cls-1{fill:#717071;}</style></defs><path class="cls-1" d="M8.36,15H2.14A2.14,2.14,0,0,1,0,12.86V7.68A2.13,2.13,0,0,1,2.14,5.55H8.36A2.13,2.13,0,0,1,10.5,7.68v5.18A2.14,2.14,0,0,1,8.36,15ZM2.14,7.37a.31.31,0,0,0-.31.31v5.18a.31.31,0,0,0,.31.31H8.36a.31.31,0,0,0,.31-.31V7.68a.31.31,0,0,0-.31-.31Z"/><path class="cls-1" d="M2.59,6.46H.76v-2a4.49,4.49,0,0,1,9,0H7.91a2.66,2.66,0,0,0-5.32,0Z"/></svg>