<?xml version="1.0" encoding="utf-8"?>
<!-- Generator: Adobe Illustrator 24.2.3, SVG Export Plug-In . SVG Version: 6.00 Build 0)  -->
<svg version="1.1" id="レイヤー_1" xmlns="http://www.w3.org/2000/svg" xmlns:xlink="http://www.w3.org/1999/xlink" x="0px"
	 y="0px" viewBox="0 0 10.1 12.9" style="enable-background:new 0 0 10.1 12.9;" xml:space="preserve">
<style type="text/css">
	.st0{fill:#FFFFFF;}
</style>
<g>
	<path class="st0" d="M9.7,1.8c0,0,0.1,0.1-1.1-0.3c-1-0.3-2-0.4-2-0.4L6.5,0.6C6.4,0.2,6.1,0,5.8,0H5H4.3C4,0,3.7,0.2,3.6,0.6
		L3.6,1.1c0,0-1,0.1-2,0.4C0.4,1.8,0.4,1.8,0.4,1.8C0.2,1.8,0,2.1,0,2.4v0.4h5h5V2.4C10.1,2.1,9.9,1.8,9.7,1.8z"/>
	<path class="st0" d="M0.8,11.7c0.1,0.7,0.6,1.2,1.3,1.2H8c0.7,0,1.2-0.5,1.3-1.2l0.6-8.2H0.2L0.8,11.7z M7.2,5.3
		c0-0.2,0.2-0.4,0.4-0.4C7.8,4.9,8,5.1,8,5.3l-0.4,6c0,0.2-0.2,0.4-0.4,0.4c-0.2,0-0.4-0.2-0.4-0.4L7.2,5.3z M4.7,5.3
		c0-0.2,0.2-0.4,0.4-0.4c0.2,0,0.4,0.2,0.4,0.4v6c0,0.2-0.2,0.4-0.4,0.4c-0.2,0-0.4-0.2-0.4-0.4V5.3z M2.5,4.9
		c0.2,0,0.4,0.1,0.4,0.4l0.4,6c0,0.2-0.1,0.4-0.4,0.4c-0.2,0-0.4-0.1-0.4-0.4l-0.4-6C2.1,5.1,2.3,4.9,2.5,4.9z"/>
</g>
</svg>
