<svg id="レイヤー_1" data-name="レイヤー 1" xmlns="http://www.w3.org/2000/svg" viewBox="0 0 158.69 32.59"><defs><style>.cls-1{fill:#ff648c;}</style></defs><path class="cls-1" d="M5.47,26.2c.39.09.83.31.83.79s-1.1,2-2.23,3.54c-.57.79-1.49,2.06-2.58,2.06S0,32,0,31c0-1.92,3.11-6.69,4.16-8.53a3.32,3.32,0,0,1-2-2.8c0-2.53,5.16-3.72,7-4.28l7-9.19c-7.65.13-13.73,2.93-15,2.93-.26,0-.7,0-.7-.44,0-1,2.54-4.41,3.24-5.38A5.7,5.7,0,0,1,7,1.53,43,43,0,0,1,18.72,0C29.57,0,32.59,3.5,32.59,8.92c0,9.32-11.33,15.88-25.33,14.31Zm7.65-11.37c1.62,0,3.41-.62,3.41.22s-3.71,1.09-4.41,1.57l-1,1.44a13.59,13.59,0,0,0,4.51.44C24.23,18,29.87,11.77,29.39,9s-8.7-3.19-10.71-3.19a4.19,4.19,0,0,1-1,2.67Z"/><path class="cls-1" d="M54.67,6.47a4.42,4.42,0,0,1,3.94.4A4.37,4.37,0,0,1,60,10.32C60.18,19,49.78,30.79,39.76,30.7c-3.46,0-7.39-2.14-7.79-8.92C31.45,12.33,46,1.62,54.46.44c2-.31,4.24,2.8,4.24,3.5,0,.91-1.49,1.31-2.15,1.53a12.74,12.74,0,0,0-1.92,1ZM41.86,16.36c-.57,0-.57-.83-.61-1.23-2.45,2.45-4.86,5.95-4.86,9.54,0,1.53.66,2.84,2.32,2.84,2.45,0,6.25-1.84,8.09-3.41,5.86-5,9.19-10.32,9.32-13.52a1.89,1.89,0,0,0-1.71-2.14c-3.85,0-9.14,3.63-11.2,6.74C43,15.53,42.38,16.36,41.86,16.36Z"/><path class="cls-1" d="M79.13,15.53c4.42,1,6.48,3.36,6.48,5.51,0,8.7-15.27,10.1-21.57,10.1-1.7,0-7,0-7-2.54,0-.91,1.53-3.23,2.23-3.89A11.62,11.62,0,0,1,63,23.44c.22,0,.35,0,.35.31,0,.44-.43.66-.74.83a4.88,4.88,0,0,0-.74.66v.08c15.61.57,19.9-3.93,19.9-4.63,0-2.23-12.12-4-14.22-4.33s-4.46-1-4.46-3.68a16.19,16.19,0,0,1,1.4-5.81C65.84,4.64,73.75.48,83.33.48a26.42,26.42,0,0,1,5.51.61c1,.22,1.14.57,1.14,1.45,0,3.23-1.09,4-3.67,5a12.38,12.38,0,0,0-3.94,2.15,2.68,2.68,0,0,1-1.09.43c-.44,0-.7-.22-.7-.65a9.64,9.64,0,0,1,3.19-3.06l-.09-.09c-11.28.39-16.14,4.46-16.18,5.47C67.5,12.38,66.93,12.68,79.13,15.53Z"/><path class="cls-1" d="M111.26,20.37l.39,2.14c-2.58,2.29-7.58,8.26-11.13,8.26-1.85,0-2.72-1.55-2.72-3.2,0-2.92,2.62-6.13,4.18-8.36l-.1-.1a38.8,38.8,0,0,0-7.49,7.44c-.72.92-2.52,3.3-3.83,3.3-2.14,0-2.68-3.06-2.73-4.71-.14-3.36,2.92-8.27,5.74-10.65a2.42,2.42,0,0,1,1.89-.58c2.92.1,2.68.78,2.68,1.07,0,1.89-6.13,6.8-6.13,8a.54.54,0,0,0,.54.53c.34,0,.78-.43,1-.68,3.89-4.95,12.83-10.93,14.24-10.93.19,0,.48.24.78.92a11.68,11.68,0,0,1,.73,2.63c0,1.89-6,5.59-6,8.94a.9.9,0,0,0,.87.87c1.17,0,3.31-1.7,4.18-2.43Z"/><path class="cls-1" d="M124.57,23.68c-2.18,2.67-6.46,7.05-10.15,7.05-2.87,0-4.18-3.31-4.18-5.79,0-5.93,6.07-11.71,9-11.71.82,0,2.14.29,2.14,1.36,0,2.43-4.81,6.76-6.85,8.17-.39,2,.34,3.06,2.57,3.06,2.58,0,5.1-2.58,7-4Zm-4.66-13.51c0-2,2.33-3.74,4.23-3.74a1.53,1.53,0,0,1,1.6,1.5c0,2-1.8,4.33-3.89,4.33A2,2,0,0,1,119.91,10.17Z"/><path class="cls-1" d="M141.29,21.64l.49,1.84c-3,3-8.26,7.39-12.15,7.2-3.26-.15-6.85-2-7.73-5.54a1.64,1.64,0,0,1-1.07.63.91.91,0,0,1-.82-.93c0-.63.77-1.31,1.16-1.7l10.55-9.67c.1-1.6,1-3.16,2.77-3.16,1.46,0,1.75.44,1.89,1.8.2,1.85.93,3.5.93,5.64,0,4-3.21,7-6.32,8.84,3.11.54,5-.92,7.39-2.72Zm-16.52,1c1.8.1,2.87,1.6,3.79,2.87,2.92-1.8,3.69-2.63,3.84-5.45-.15-1-.34-2.33-.63-4Z"/><path class="cls-1" d="M158.69,9.73c-2.28,4.62-2.67,6.42-8,6.08-1.65,2.13-4.42,6.12-4.42,9,0,1.07.34,1.71,1.46,1.71,1.55,0,3.3-1.46,8.36-5.06l.24,2.14c-2.87,2.62-8.12,7.82-12.25,7.82A3,3,0,0,1,141,28.2a12.68,12.68,0,0,1,1.27-4.86l-.1-.1-2.48,2-.53-1.84a28.24,28.24,0,0,0,7.38-7.78c-3,0-2-.19-4.61.2l.53-.88c2.62-4.28,3-5,8.21-5.25,1.46-2,2.53-4.27,5.35-4.27.63,0,1.55.14,1.55.92s-1.41,2.48-1.89,3.16Z"/></svg>